<svg width="444" height="385" viewBox="0 0 444 385" fill="none" xmlns="http://www.w3.org/2000/svg">
    <path d="M103.842 0.913276C93.2808 2.11171 79.0667 6.16796 69.4292 10.7312C56.0512 17.0461 45.6217 24.6516 34.7521 36.0828C12.1767 59.775 0.206909 90.243 0.206909 123.937C0.206909 143.712 3.94747 160.997 12.0887 179.112C32.2437 223.915 85.7557 282.039 161.491 341.546C187.983 362.334 219.14 384.367 222.132 384.367C225.212 384.367 263.41 356.987 289.55 336.061C362.161 277.891 411.404 223.684 431.647 179.619C438.204 165.376 441.417 153.714 443.177 137.95C444.057 130.022 443.793 112.368 442.737 105.362C440.669 91.9945 437.148 80.3789 431.735 68.8555C414.617 32.4414 382.536 7.64296 344.778 1.55859C338.221 0.498432 325.459 0.175776 318.594 0.821088C292.719 3.35624 268.867 14.05 245.544 33.5016C242.639 35.9445 236.126 42.2133 231.065 47.468L221.912 57.0094L219.14 53.9672C217.643 52.2617 215.883 50.2336 215.267 49.4961C213.463 47.1914 202.329 36.682 197.224 32.4875C176.629 15.3867 155.022 5.19999 131.699 1.51249C126.198 0.636713 109.387 0.267963 103.842 0.913276Z" fill="#9E9E9E"/>
</svg>
